<svg width="1200" height="420" viewBox="0 0 1200 420" fill="none" xmlns="http://www.w3.org/2000/svg">
  <defs>
    <linearGradient id="bg" x1="80" y1="40" x2="1130" y2="390" gradientUnits="userSpaceOnUse">
      <stop stop-color="#4C1D95"/>
      <stop offset="0.5" stop-color="#1D4ED8"/>
      <stop offset="1" stop-color="#0891B2"/>
    </linearGradient>
    <linearGradient id="glow" x1="0" y1="0" x2="1" y2="1">
      <stop stop-color="#C4B5FD" stop-opacity="0.78"/>
      <stop offset="1" stop-color="#67E8F9" stop-opacity="0.16"/>
    </linearGradient>
    <pattern id="grid" width="40" height="40" patternUnits="userSpaceOnUse">
      <path d="M40 0H0V40" stroke="white" stroke-opacity="0.075"/>
    </pattern>
    <filter id="shadow" x="-20%" y="-20%" width="140%" height="140%">
      <feDropShadow dx="0" dy="14" stdDeviation="18" flood-color="#0F172A" flood-opacity="0.35"/>
    </filter>
  </defs>

  <rect width="1200" height="420" rx="32" fill="url(#bg)"/>
  <rect width="1200" height="420" rx="32" fill="url(#grid)"/>
  <circle cx="1090" cy="70" r="170" fill="#22D3EE" fill-opacity="0.12"/>
  <circle cx="1040" cy="365" r="225" fill="#A78BFA" fill-opacity="0.13"/>
  <circle cx="110" cy="380" r="150" fill="#38BDF8" fill-opacity="0.10"/>

  <g transform="translate(86 72)">
    <rect x="0" y="0" width="58" height="58" rx="17" fill="white" fill-opacity="0.15" stroke="white" stroke-opacity="0.34"/>
    <circle cx="29" cy="29" r="15" stroke="white" stroke-width="3"/>
    <path d="M29 9V17M29 41V49M9 29H17M41 29H49M15 15L21 21M37 37L43 43M43 15L37 21M21 37L15 43" stroke="#A5F3FC" stroke-width="3" stroke-linecap="round"/>
  </g>

  <text x="86" y="182" fill="white" font-family="Inter, ui-sans-serif, system-ui, -apple-system, sans-serif" font-size="54" font-weight="800" letter-spacing="1.6">AI INTELLIGENCE RADAR</text>
  <text x="88" y="229" fill="#CFFAFE" font-family="Inter, ui-sans-serif, system-ui, -apple-system, sans-serif" font-size="23" font-weight="500" letter-spacing="0.8">Signals → Evidence → Knowledge → Trends</text>

  <g filter="url(#shadow)" font-family="Inter, ui-sans-serif, system-ui, -apple-system, sans-serif">
    <g transform="translate(86 290)">
      <rect width="270" height="78" rx="20" fill="#0F172A" fill-opacity="0.32" stroke="url(#glow)"/>
      <circle cx="42" cy="39" r="19" fill="#8B5CF6"/>
      <path d="M34 39H50M42 31V47" stroke="white" stroke-width="3" stroke-linecap="round"/>
      <text x="74" y="34" fill="white" font-size="17" font-weight="700">COLLECT</text>
      <text x="74" y="56" fill="#DDD6FE" font-size="13">First-party signals</text>
    </g>
    <g transform="translate(379 290)">
      <rect width="270" height="78" rx="20" fill="#0F172A" fill-opacity="0.32" stroke="url(#glow)"/>
      <circle cx="42" cy="39" r="19" fill="#3B82F6"/>
      <path d="M33 39L39 45L51 32" stroke="white" stroke-width="3" stroke-linecap="round" stroke-linejoin="round"/>
      <text x="74" y="34" fill="white" font-size="17" font-weight="700">VERIFY</text>
      <text x="74" y="56" fill="#DBEAFE" font-size="13">Evidence before hype</text>
    </g>
    <g transform="translate(672 290)">
      <rect width="270" height="78" rx="20" fill="#0F172A" fill-opacity="0.32" stroke="url(#glow)"/>
      <circle cx="42" cy="39" r="19" fill="#06B6D4"/>
      <path d="M32 45L40 37L45 42L53 33" stroke="white" stroke-width="3" stroke-linecap="round" stroke-linejoin="round"/>
      <text x="74" y="34" fill="white" font-size="17" font-weight="700">CONNECT</text>
      <text x="74" y="56" fill="#CFFAFE" font-size="13">Turn signals into trends</text>
    </g>
  </g>
</svg>
